HIERARCHY
ROOT Hips
{
	OFFSET	1.0698	1.7056	0.4759
	CHANNELS 6 Xposition Yposition Zposition Zrotation Xrotation Yrotation
	JOINT Spine0
	{
		OFFSET	0.0000	0.2768	0.0473
		CHANNELS 3 Zrotation Xrotation Yrotation
		JOINT Spine1
		{
			OFFSET	0.0000	0.4876	-0.0050
			CHANNELS 3 Zrotation Xrotation Yrotation
			JOINT Neck
			{
				OFFSET	0.0000	0.4163	-0.1306
				CHANNELS 3 Zrotation Xrotation Yrotation
				JOINT Head
				{
					OFFSET	0.0000	0.1302	0.0278
					CHANNELS 3 Zrotation Xrotation Yrotation
					End Site 
					{
						OFFSET	0.0000	0.7443	0.0037
					}
				}
			}
			JOINT LeftShoulder
			{  
				OFFSET	0.1842	0.3056	-0.1138
				CHANNELS 3 Zrotation Xrotation Yrotation
				JOINT LeftUpArm
				{
					OFFSET	0.3697	-0.0334	-0.0538
					CHANNELS 3 Zrotation Xrotation Yrotation
					JOINT LeftLowArm
					{
						OFFSET	0.8306	0.0000	0.0000
						CHANNELS 3 Zrotation Xrotation Yrotation
						JOINT LeftHand
						{
							OFFSET	0.8362	0.0000	0.0000
							CHANNELS 3 Zrotation Xrotation Yrotation
							JOINT LeftFinger
							{
								OFFSET	0.3140	0.0147	0.0814
								CHANNELS 3 Zrotation Xrotation Yrotation
								End Site 
								{
									OFFSET	0.1613	0.0000	0.0000
								}
							}
						}
					}
				}
			}
			JOINT RightShoulder
			{  
				OFFSET	-0.1843	0.3056	-0.1138
				CHANNELS 3 Zrotation Xrotation Yrotation
				JOINT RightUpArm
				{
					OFFSET	-0.3696	-0.0334	-0.0538
					CHANNELS 3 Zrotation Xrotation Yrotation
					JOINT RightLowArm
					{
						OFFSET	-0.8306	0.0000	0.0000
						CHANNELS 3 Zrotation Xrotation Yrotation
						JOINT RightHand
						{
							OFFSET	-0.8362	0.0000	0.0000
							CHANNELS 3 Zrotation Xrotation Yrotation
							JOINT RightFinger
							{
								OFFSET	-0.3118	0.0184	0.0812
								CHANNELS 3 Zrotation Xrotation Yrotation
								End Site 
								{
									OFFSET	-0.1665	0.0000	0.0000
								}
							}
						}
					}
				}
			}
		}
	}
	JOINT LeftUpLeg
	{
		OFFSET	0.2890	-0.0982	0.0000
		CHANNELS 3 Zrotation Xrotation Yrotation
		JOINT LeftLowLeg
		{
			OFFSET	0.0000	-1.2519	-0.0519
			CHANNELS 3 Zrotation Xrotation Yrotation
			JOINT LeftFoot
			{
				OFFSET	-0.0004	-1.1757	-0.0254
				CHANNELS 3 Zrotation Xrotation Yrotation
				JOINT LeftToe
				{
					OFFSET	0.0055	-0.3658	0.2485
					CHANNELS 3 Zrotation Xrotation Yrotation
					End Site 
					{
						OFFSET	-0.0001	0.0000	0.3810
					}
				}
			}
		}
	}

	JOINT RightUpLeg
	{
		OFFSET	-0.2890	-0.0982	0.0000
		CHANNELS 3 Zrotation Xrotation Yrotation
		JOINT RightLowLeg
		{
			OFFSET	0.0000	-1.2519	-0.0519
			CHANNELS 3 Zrotation Xrotation Yrotation
			JOINT RightFoot
			{
				OFFSET	-0.0004	-1.1757	-0.0254
				CHANNELS 3 Zrotation Xrotation Yrotation
				JOINT RightToe
				{
					OFFSET	0.0055	-0.3658	0.2485
					CHANNELS 3 Zrotation Xrotation Yrotation
					End Site 
					{
						OFFSET	0.0000	0.0000	0.3810
					}
				}
			}
		}
	}
}

MOTION
Frames:	13
Frame Time:	0.01667
-1.0700 1.7058 0.4763 -355.3815 -5.4468 -156.6095 0.0000 0.0000 0.0000 -1.6135 -352.0565 -347.0375 0.0000 0.0000 0.0000 -357.6366 -13.4031 -349.8610 0.0000 0.0000 0.0000 -14.4608 -332.7328 -73.6658 -311.5843 -9.2858 -11.6051 -355.9098 -6.8281 -1.9267 0.0000 0.0000 0.0000 0.0000 0.0000 0.0000 -348.5592 -335.4317 -292.4468 -48.0881 -7.6474 -27.2979 -0.7813 -20.4068 -309.3258 0.0000 0.0000 0.0000 -264.0961 -72.1225 -268.3671 -176.8138 -295.4708 -173.8426 -5.3795 -7.8247 -24.7917 0.0000 0.0000 0.0000 -88.0989 -75.4260 -78.5186 -178.3163 -292.5756 -162.6444 -348.3793 -11.2306 -33.9983 0.0000 0.0000 0.0000
-1.0700 1.7058 0.4763 -355.3815 -5.4468 -156.6095 0.0000 0.0000 0.0000 -1.6135 -352.0565 -347.0375 0.0000 0.0000 0.0000 -357.6366 -13.4031 -349.8610 0.0000 0.0000 0.0000 -14.4608 -332.7328 -73.6658 -311.5821 -9.2850 -11.5918 -355.9134 -6.8302 -1.9396 0.0000 0.0000 0.0000 0.0000 0.0000 0.0000 -348.5592 -335.4317 -292.4468 -48.0984 -7.6233 -27.2816 -0.7679 -20.4233 -309.3449 0.0000 0.0000 0.0000 -264.0961 -72.1225 -268.3671 -176.8138 -295.4708 -173.8426 -5.3795 -7.8247 -24.7917 0.0000 0.0000 0.0000 -88.0989 -75.4260 -78.5186 -178.3163 -292.5756 -162.6444 -348.3793 -11.2306 -33.9983 0.0000 0.0000 0.0000
-1.0706 1.7057 0.4765 -355.3899 -5.4413 -156.6066 0.0000 0.0000 0.0000 -1.6103 -352.0619 -347.0404 0.0000 0.0000 0.0000 -357.6593 -13.3803 -349.8623 0.0000 0.0000 0.0000 -14.4791 -332.7210 -73.6666 -311.6005 -9.3035 -11.5570 -355.9037 -6.8110 -1.9863 0.0000 0.0000 0.0000 0.0000 0.0000 0.0000 -348.6152 -335.3786 -292.4522 -48.1783 -7.6878 -27.3262 -0.8503 -20.1813 -309.3950 0.0000 0.0000 0.0000 -264.0953 -72.1515 -268.3786 -176.6756 -295.5127 -173.9574 -5.3368 -7.8589 -24.8035 0.0000 0.0000 0.0000 -88.0724 -75.4220 -78.4857 -178.2827 -292.5711 -162.6673 -348.3431 -11.2386 -34.0118 0.0000 0.0000 0.0000
-1.0706 1.7057 0.4765 -355.3899 -5.4413 -156.6066 0.0000 0.0000 0.0000 -1.6103 -352.0619 -347.0404 0.0000 0.0000 0.0000 -357.6593 -13.3803 -349.8623 0.0000 0.0000 0.0000 -14.4791 -332.7210 -73.6666 -311.5807 -9.2907 -11.5787 -355.9171 -6.8257 -1.9600 0.0000 0.0000 0.0000 0.0000 0.0000 0.0000 -348.6152 -335.3786 -292.4522 -48.1783 -7.6878 -27.3262 -0.8503 -20.1813 -309.3950 0.0000 0.0000 0.0000 -264.0953 -72.1515 -268.3786 -176.6756 -295.5127 -173.9574 -5.3368 -7.8589 -24.8035 0.0000 0.0000 0.0000 -88.0724 -75.4220 -78.4857 -178.2827 -292.5711 -162.6673 -348.3355 -11.2368 -34.0170 0.0000 0.0000 0.0000
-1.0712 1.7058 0.4762 -355.3727 -5.4449 -156.5956 0.0000 0.0000 0.0000 -1.6174 -352.0521 -347.0104 0.0000 0.0000 0.0000 -357.6598 -13.3930 -349.9022 0.0000 0.0000 0.0000 -14.3577 -332.7640 -73.7337 -311.6567 -9.4287 -11.5430 -355.8836 -6.7540 -1.9682 0.0000 0.0000 0.0000 0.0000 0.0000 0.0000 -348.6250 -335.3910 -292.4512 -48.2174 -7.6633 -27.3534 -0.8503 -20.0922 -309.4413 0.0000 0.0000 0.0000 -264.0287 -72.1589 -268.3405 -176.7613 -295.4734 -173.8844 -5.3701 -7.8058 -24.8006 0.0000 0.0000 0.0000 -88.0600 -75.3980 -78.5144 -178.1685 -292.5684 -162.7574 -348.3155 -11.2575 -34.0340 0.0000 0.0000 0.0000
-1.0712 1.7058 0.4762 -355.3727 -5.4449 -156.5956 0.0000 0.0000 0.0000 -1.6174 -352.0521 -347.0104 0.0000 0.0000 0.0000 -357.6598 -13.3930 -349.9022 0.0000 0.0000 0.0000 -14.3577 -332.7640 -73.7337 -311.6567 -9.4287 -11.5430 -355.8836 -6.7540 -1.9682 0.0000 0.0000 0.0000 0.0000 0.0000 0.0000 -348.6250 -335.3910 -292.4512 -48.2174 -7.6633 -27.3534 -0.8503 -20.0922 -309.4413 0.0000 0.0000 0.0000 -264.0287 -72.1589 -268.3405 -176.7613 -295.4734 -173.8844 -5.3701 -7.8058 -24.8006 0.0000 0.0000 0.0000 -88.0600 -75.3980 -78.5144 -178.1685 -292.5684 -162.7574 -348.3617 -11.2340 -34.0314 0.0000 0.0000 0.0000
-1.0705 1.7056 0.4765 -355.3335 -5.4439 -156.5785 0.0000 0.0000 0.0000 -1.6011 -352.0499 -347.0148 0.0000 0.0000 0.0000 -357.6501 -13.3952 -349.8964 0.0000 0.0000 0.0000 -14.3407 -332.7532 -73.7447 -311.6967 -9.5347 -11.5584 -355.8258 -6.6778 -2.0108 0.0000 0.0000 0.0000 0.0000 0.0000 0.0000 -348.6295 -335.3861 -292.4726 -48.2558 -7.6603 -27.3270 -0.8518 -20.0524 -309.4952 0.0000 0.0000 0.0000 -263.9277 -72.1699 -268.2635 -176.7723 -295.4921 -173.8724 -5.3798 -7.8132 -24.8028 0.0000 0.0000 0.0000 -88.1012 -75.3675 -78.6006 -178.1821 -292.5806 -162.7440 -348.4087 -11.2215 -34.0085 0.0000 0.0000 0.0000
-1.0705 1.7056 0.4765 -355.3335 -5.4439 -156.5785 0.0000 0.0000 0.0000 -1.6011 -352.0499 -347.0148 0.0000 0.0000 0.0000 -357.6501 -13.3952 -349.8964 0.0000 0.0000 0.0000 -14.3407 -332.7532 -73.7447 -311.7078 -9.5318 -11.5542 -355.8152 -6.6789 -2.0169 0.0000 0.0000 0.0000 0.0000 0.0000 0.0000 -348.6295 -335.3861 -292.4726 -48.2609 -7.6483 -27.3188 -0.8526 -20.0432 -309.5136 0.0000 0.0000 0.0000 -263.9277 -72.1699 -268.2635 -176.7723 -295.4921 -173.8724 -5.3798 -7.8132 -24.8028 0.0000 0.0000 0.0000 -88.1012 -75.3675 -78.6006 -178.1821 -292.5806 -162.7440 -348.3804 -11.2357 -34.0173 0.0000 0.0000 0.0000
-1.0713 1.7059 0.4764 -355.2941 -5.4317 -156.5718 0.0000 0.0000 0.0000 -1.5207 -351.9890 -347.0599 0.0000 0.0000 0.0000 -357.6240 -13.4542 -349.8910 0.0000 0.0000 0.0000 -14.4182 -332.7585 -73.7059 -311.6096 -9.5314 -11.5804 -355.8403 -6.6960 -2.0355 0.0000 0.0000 0.0000 0.0000 0.0000 0.0000 -348.6608 -335.4178 -292.4565 -48.3120 -7.6092 -27.2152 -0.8838 -20.0499 -309.6422 0.0000 0.0000 0.0000 -263.8342 -72.2070 -268.2272 -176.7067 -295.5036 -173.9063 -5.3559 -7.8261 -24.8347 0.0000 0.0000 0.0000 -88.1034 -75.3547 -78.6336 -178.1784 -292.5786 -162.7282 -348.3814 -11.2402 -34.0382 0.0000 0.0000 0.0000
-1.0713 1.7059 0.4764 -355.2941 -5.4317 -156.5718 0.0000 0.0000 0.0000 -1.5207 -351.9890 -347.0599 0.0000 0.0000 0.0000 -357.6268 -13.4566 -349.8768 0.0000 0.0000 0.0000 -14.4584 -332.7706 -73.6833 -311.6443 -9.4814 -11.6176 -355.8074 -6.7179 -2.0329 0.0000 0.0000 0.0000 0.0000 0.0000 0.0000 -348.7014 -335.4200 -292.4307 -48.3000 -7.6247 -27.2462 -0.8838 -20.0499 -309.6422 0.0000 0.0000 0.0000 -263.8342 -72.2070 -268.2272 -176.7067 -295.5036 -173.9063 -5.3559 -7.8261 -24.8347 0.0000 0.0000 0.0000 -88.1034 -75.3547 -78.6336 -178.1784 -292.5786 -162.7282 -348.3511 -11.2426 -34.0370 0.0000 0.0000 0.0000
-1.0712 1.7059 0.4766 -355.2941 -5.4317 -156.5718 0.0000 0.0000 0.0000 -1.5207 -351.9890 -347.0599 0.0000 0.0000 0.0000 -357.6268 -13.4566 -349.8768 0.0000 0.0000 0.0000 -14.4356 -332.7792 -73.6900 -311.6338 -9.4715 -11.6253 -355.8259 -6.7341 -2.0105 0.0000 0.0000 0.0000 0.0000 0.0000 0.0000 -348.6737 -335.4290 -292.4402 -48.2988 -7.6054 -27.2274 -0.8838 -20.0499 -309.6422 0.0000 0.0000 0.0000 -263.8592 -72.1976 -268.2356 -176.7267 -295.4942 -173.8851 -5.3610 -7.8177 -24.8429 0.0000 0.0000 0.0000 -88.0941 -75.3383 -78.6405 -178.1071 -292.5753 -162.7829 -348.3416 -11.2564 -34.0496 0.0000 0.0000 0.0000
-1.0710 1.7059 0.4767 -355.3203 -5.4412 -156.5863 0.0000 0.0000 0.0000 -1.5383 -351.9681 -347.0993 0.0000 0.0000 0.0000 -357.6285 -13.4302 -349.8297 0.0000 0.0000 0.0000 -14.4477 -332.8071 -73.6370 -311.6041 -9.4568 -11.6411 -355.8431 -6.7893 -1.9769 0.0000 0.0000 0.0000 0.0000 0.0000 0.0000 -348.6470 -335.4678 -292.4084 -48.3375 -7.5650 -27.1734 -0.8335 -20.0084 -309.6909 0.0000 0.0000 0.0000 -263.8806 -72.1851 -268.2201 -176.8487 -295.4580 -173.7814 -5.4005 -7.7571 -24.8255 0.0000 0.0000 0.0000 -88.1657 -75.3399 -78.6830 -178.1532 -292.5889 -162.7538 -348.3594 -11.2473 -34.0253 0.0000 0.0000 0.0000
-1.0710 1.7059 0.4767 -355.3112 -5.4281 -156.5828 0.0000 0.0000 0.0000 -1.5245 -351.9595 -347.1018 0.0000 0.0000 0.0000 -357.6285 -13.4302 -349.8297 0.0000 0.0000 0.0000 -14.4477 -332.8071 -73.6370 -311.6041 -9.4568 -11.6411 -355.8431 -6.7893 -1.9769 0.0000 0.0000 0.0000 0.0000 0.0000 0.0000 -348.6470 -335.4678 -292.4084 -48.3375 -7.5650 -27.1734 -0.8335 -20.0083 -309.6909 0.0000 0.0000 0.0000 -263.8925 -72.1886 -268.2468 -176.8487 -295.4580 -173.7813 -5.4005 -7.7571 -24.8255 0.0000 0.0000 0.0000 -88.1202 -75.3371 -78.6498 -178.1532 -292.5889 -162.7539 -348.3594 -11.2473 -34.0253 0.0000 0.0000 0.0000
